<svg width="11" height="15" viewBox="0 0 11 15" fill="none" xmlns="http://www.w3.org/2000/svg">
<g filter="url(#filter0_d_4_1012)">
<path d="M7.4375 5.75C7.41927 6.36979 7.20964 6.88932 6.80859 7.30859C6.38932 7.70964 5.86979 7.91927 5.25 7.9375C4.63021 7.91927 4.11068 7.70964 3.69141 7.30859C3.29036 6.88932 3.08073 6.36979 3.0625 5.75C3.08073 5.13021 3.29036 4.61068 3.69141 4.19141C4.11068 3.79036 4.63021 3.58073 5.25 3.5625C5.86979 3.58073 6.38932 3.79036 6.80859 4.19141C7.20964 4.61068 7.41927 5.13021 7.4375 5.75ZM5.25 4.875C4.99479 4.875 4.78516 4.95703 4.62109 5.12109C4.45703 5.28516 4.375 5.49479 4.375 5.75C4.375 6.00521 4.45703 6.21484 4.62109 6.37891C4.78516 6.54297 4.99479 6.625 5.25 6.625C5.50521 6.625 5.71484 6.54297 5.87891 6.37891C6.04297 6.21484 6.125 6.00521 6.125 5.75C6.125 5.49479 6.04297 5.28516 5.87891 5.12109C5.71484 4.95703 5.50521 4.875 5.25 4.875ZM10.5 5.75C10.4635 6.57031 10.1719 7.51823 9.625 8.59375C9.0599 9.66927 8.42188 10.7083 7.71094 11.7109C7 12.7318 6.39844 13.543 5.90625 14.1445C5.72396 14.3633 5.50521 14.4727 5.25 14.4727C4.99479 14.4727 4.77604 14.3633 4.59375 14.1445C4.10156 13.543 3.49089 12.7318 2.76172 11.7109C2.05078 10.7083 1.42188 9.66927 0.875 8.59375C0.328125 7.51823 0.0364583 6.57031 0 5.75C0.0364583 4.25521 0.546875 3.01562 1.53125 2.03125C2.51562 1.04688 3.75521 0.536458 5.25 0.5C6.74479 0.536458 7.98438 1.04688 8.96875 2.03125C9.95312 3.01562 10.4635 4.25521 10.5 5.75ZM5.25 1.8125C4.13802 1.84896 3.20833 2.23177 2.46094 2.96094C1.73177 3.70833 1.34896 4.63802 1.3125 5.75C1.3125 6.09635 1.44922 6.61589 1.72266 7.30859C2.03255 8.0013 2.42448 8.73047 2.89844 9.49609C3.28125 10.1341 3.68229 10.7357 4.10156 11.3008C4.52083 11.8841 4.90365 12.4036 5.25 12.8594C5.59635 12.4036 5.97917 11.8932 6.39844 11.3281C6.81771 10.7448 7.21875 10.1341 7.60156 9.49609C8.07552 8.73047 8.46745 8.0013 8.77734 7.30859C9.05078 6.61589 9.1875 6.09635 9.1875 5.75C9.15104 4.63802 8.76823 3.70833 8.03906 2.96094C7.29167 2.23177 6.36198 1.84896 5.25 1.8125Z" fill="#0D0D0C"/>
<path d="M5.25 13.9727C5.31634 13.9727 5.3804 13.9569 5.4502 13.8984L5.52246 13.8242C6.00259 13.2371 6.59493 12.4383 7.30078 11.4248L7.30273 11.4219C7.82639 10.6834 8.31005 9.92486 8.75293 9.14648L9.18262 8.36133C9.70368 7.3352 9.96263 6.46809 9.99902 5.75C9.963 4.37875 9.49908 3.26861 8.61523 2.38477C7.73139 1.50092 6.62125 1.037 5.25 1.00098C3.87875 1.037 2.76861 1.50092 1.88477 2.38477C1.00092 3.26861 0.537004 4.37875 0.500977 5.75C0.537436 6.46945 0.797266 7.33851 1.32031 8.36719C1.85565 9.42001 2.4723 10.4373 3.16895 11.4199C3.89355 12.4344 4.49564 13.235 4.97754 13.8242C5.07724 13.9439 5.16152 13.9727 5.25 13.9727ZM4.85156 13.1621C4.50195 12.7021 4.11654 12.1788 3.69531 11.5928C3.26868 11.0173 2.86196 10.4056 2.47363 9.75879C1.99011 8.9777 1.58706 8.229 1.2666 7.5127L1.26172 7.50293L1.25781 7.49219C0.981712 6.79273 0.8125 6.19765 0.8125 5.75V5.7334C0.852788 4.50596 1.28055 3.4551 2.10254 2.6123V2.61133L2.11133 2.60352C2.95421 1.78119 4.0057 1.3528 5.2334 1.3125H5.2666C6.49428 1.3528 7.54482 1.78121 8.3877 2.60352L8.38867 2.60254L8.39648 2.61133C9.21881 3.45421 9.6472 4.5057 9.6875 5.7334V5.75C9.6875 6.19765 9.51829 6.79273 9.24219 7.49219L9.23828 7.50293L9.2334 7.5127L8.97754 8.05664C8.79676 8.42287 8.59556 8.79726 8.37402 9.17969L8.02637 9.75879C7.63774 10.4061 7.23103 11.0269 6.80469 11.6201L6.7998 11.626L5.64844 13.1621L5.25 13.6855L4.85156 13.1621ZM5.25 7.43652C5.74402 7.41904 6.13538 7.25622 6.4541 6.95508C6.75485 6.63722 6.91812 6.24712 6.93652 5.75488C6.91997 5.25908 6.75758 4.86646 6.45605 4.54688C6.13698 4.24453 5.74504 4.08198 5.25 4.06445C4.75496 4.08198 4.36302 4.24453 4.04395 4.54688C3.74242 4.86646 3.58003 5.25908 3.56348 5.75488C3.58187 6.24687 3.74446 6.63731 4.04492 6.95508C4.36374 7.25653 4.75571 7.41903 5.25 7.43652ZM5.25 7.125C4.87674 7.125 4.53523 7.00007 4.26758 6.73242C3.99993 6.46477 3.875 6.12326 3.875 5.75C3.875 5.37674 3.99993 5.03523 4.26758 4.76758C4.53523 4.49993 4.87674 4.375 5.25 4.375C5.62326 4.375 5.96477 4.49993 6.23242 4.76758C6.50007 5.03523 6.625 5.37674 6.625 5.75C6.625 6.12326 6.50007 6.46477 6.23242 6.73242C5.96477 7.00007 5.62326 7.125 5.25 7.125Z" stroke="black"/>
</g>
<defs>
<filter id="filter0_d_4_1012" x="-4" y="0.5" width="18.5" height="21.9727" filterUnits="userSpaceOnUse" color-interpolation-filters="sRGB">
<feFlood flood-opacity="0" result="BackgroundImageFix"/>
<feColorMatrix in="SourceAlpha" type="matrix" values="0 0 0 0 0 0 0 0 0 0 0 0 0 0 0 0 0 0 127 0" result="hardAlpha"/>
<feOffset dy="4"/>
<feGaussianBlur stdDeviation="2"/>
<feComposite in2="hardAlpha" operator="out"/>
<feColorMatrix type="matrix" values="0 0 0 0 0 0 0 0 0 0 0 0 0 0 0 0 0 0 0.25 0"/>
<feBlend mode="normal" in2="BackgroundImageFix" result="effect1_dropShadow_4_1012"/>
<feBlend mode="normal" in="SourceGraphic" in2="effect1_dropShadow_4_1012" result="shape"/>
</filter>
</defs>
</svg>
